<svg xmlns="http://www.w3.org/2000/svg" width="46.942" height="41.272" viewBox="0 0 46.942 41.272">
  <path id="android" d="M29.877,76.145a1.705,1.705,0,1,1,1.705-1.705,1.705,1.705,0,0,1-1.705,1.705m-18.833,0a1.705,1.705,0,1,1,1.705-1.705,1.705,1.705,0,0,1-1.705,1.705M30.488,65.881l3.406-5.9a.71.71,0,1,0-1.227-.71h0l-3.448,5.972a21.4,21.4,0,0,0-17.516,0L8.254,59.274a.71.71,0,1,0-1.227.71h0l3.406,5.9A20.107,20.107,0,0,0,0,81.975H40.92A20.109,20.109,0,0,0,30.488,65.881" transform="matrix(0.848, -0.53, 0.53, 0.848, -31.201, -28.247)" fill="#fff"/>
</svg>
