<svg xmlns="http://www.w3.org/2000/svg" width="22.63" height="22.63" viewBox="0 0 22.63 22.63">
  <path id="app-store-ios" d="M20.205,32H2.425A2.425,2.425,0,0,0,0,34.425v17.78A2.425,2.425,0,0,0,2.425,54.63h17.78a2.425,2.425,0,0,0,2.425-2.425V34.425A2.425,2.425,0,0,0,20.205,32ZM6.415,49.806A1.009,1.009,0,1,1,4.667,48.8l.722-1.248a1.734,1.734,0,0,1,2,.576Zm7.016-2.723H4.243a1.01,1.01,0,0,1,0-2.021H6.819l3.3-5.718L9.087,37.556a1.009,1.009,0,0,1,1.748-1.01l.45.778.45-.778a1.009,1.009,0,0,1,1.748,1.01L9.148,45.063h3.137a1.386,1.386,0,0,1,1.147,2.021Zm4.955,0H16.922l.99,1.712a1.009,1.009,0,1,1-1.748,1.01q-2.493-4.311-3.738-6.471a2.794,2.794,0,0,1,.359-3.425q.993,1.72,2.975,5.152h2.627a1.01,1.01,0,0,1,0,2.021Z" transform="translate(0 -32)" fill="#dbd8d8"/>
</svg>
