<svg xmlns="http://www.w3.org/2000/svg" width="56.301" height="31.779" viewBox="0 0 56.301 31.779">
  <path id="android" d="M41.107,82.635a2.346,2.346,0,1,1,2.346-2.346,2.346,2.346,0,0,1-2.346,2.346m-25.912,0a2.346,2.346,0,1,1,2.346-2.346,2.346,2.346,0,0,1-2.346,2.346M41.947,68.513,46.633,60.4a.977.977,0,1,0-1.688-.977h0L40.2,67.64a29.446,29.446,0,0,0-24.1,0l-4.745-8.217a.977.977,0,1,0-1.688.977h0l4.686,8.113A27.665,27.665,0,0,0,0,90.657H56.3A27.667,27.667,0,0,0,41.947,68.513" transform="translate(0 -58.878)" fill="#fff"/>
</svg>
