<svg xmlns="http://www.w3.org/2000/svg" width="37.696" height="37.696" viewBox="0 0 37.696 37.696">
  <path id="app-store-ios" d="M33.657,32H4.039A4.04,4.04,0,0,0,0,36.039V65.657A4.04,4.04,0,0,0,4.039,69.7H33.657A4.04,4.04,0,0,0,37.7,65.657V36.039A4.04,4.04,0,0,0,33.657,32ZM10.686,61.66a1.681,1.681,0,0,1-2.911-1.683l1.2-2.078a2.888,2.888,0,0,1,3.332.959Zm11.687-4.535H7.068a1.683,1.683,0,1,1,0-3.366h4.291l5.5-9.525-1.725-2.979a1.681,1.681,0,1,1,2.911-1.683l.749,1.3.749-1.3a1.681,1.681,0,1,1,2.911,1.683l-7.219,12.5h5.225a2.308,2.308,0,0,1,1.91,3.366Zm8.254,0h-2.44l1.649,2.852a1.681,1.681,0,0,1-2.911,1.683Q22.773,54.479,20.7,50.882a4.655,4.655,0,0,1,.6-5.7q1.653,2.865,4.956,8.583h4.375a1.683,1.683,0,1,1,0,3.366Z" transform="translate(0 -32)" fill="#fff"/>
</svg>
