<svg xmlns="http://www.w3.org/2000/svg" width="93.141" height="55.944" viewBox="0 0 93.141 55.944">
  <path id="aws" d="M26.253,84.043c-.1,3.3,1.543,4.756,1.583,5.683a1.188,1.188,0,0,1-.6.912l-1.863,1.3a1.551,1.551,0,0,1-.819.279c-.063,0-1.192.266-2.98-3.727a11.44,11.44,0,0,1-9.112,4.286c-2.369.13-8.79-1.345-8.46-8.18-.231-5.571,4.957-9.032,10.322-8.739a29.227,29.227,0,0,1,6.838.912V74.5c.391-3.851-2.139-6.838-6.521-6.39a17.359,17.359,0,0,0-6.671,1.471c-1.071.492-1.208.41-1.564.41-1.078,0-.635-3.126-.428-3.522.758-.931,5.219-2.67,9.6-2.646a11.185,11.185,0,0,1,8.1,2.515,10.229,10.229,0,0,1,2.572,7.62V84.043ZM13.677,88.757c4.72-.068,6.718-2.906,7.173-4.434a14.577,14.577,0,0,0,.3-3.988,25.013,25.013,0,0,0-5.757-.709c-2.2-.166-6.232.819-6.074,4.695A4.043,4.043,0,0,0,13.677,88.757Zm24.874,3.354A1.68,1.68,0,0,1,36.705,90.6L29.458,66.641a5.559,5.559,0,0,1-.279-1.249.671.671,0,0,1,.562-.764c.035-.006-.31,0,3.238,0A1.653,1.653,0,0,1,34.8,66.137L40,86.632l4.826-20.495a1.647,1.647,0,0,1,1.863-1.49h2.5a1.61,1.61,0,0,1,1.845,1.509L55.9,86.913l5.366-20.757a1.7,1.7,0,0,1,1.845-1.509h2.87c.124-.019.9-.118.764,1.249-.063.269.5-1.551-7.677,24.726a1.679,1.679,0,0,1-1.845,1.509H54.5a1.679,1.679,0,0,1-1.845-1.564L47.83,70.609l-4.77,19.936a1.677,1.677,0,0,1-1.845,1.564H38.551Zm39.8.819A19.661,19.661,0,0,1,70,91.142a1.863,1.863,0,0,1-1.137-1.733V87.844c0-1.23.9-1,1.285-.857a19.982,19.982,0,0,0,4.193,1.4c5.334,1.1,7.68-.335,8.254-.652a3.346,3.346,0,0,0,.764-5.086c-1.525-1.279-2.253-1.327-7.732-3.056-.675-.188-6.36-1.981-6.373-7.62-.089-4.11,3.646-8.176,10.117-8.142,1.844,0,6.757.6,8.087,2.273a1.758,1.758,0,0,1,.279,1.025V68.6q0,.969-.709.969C85.91,69.441,83.92,67.94,79.878,68c-1-.052-5.805.132-5.59,3.634-.063,2.759,3.873,3.794,4.322,3.913,5.306,1.6,7.08,1.861,9.186,4.3,2.494,3.238,1.15,7.029.633,8.068-2.777,5.456-9.957,5.012-10.079,5.009Zm5.85,15.26c-10.191,7.527-24.986,11.533-37.618,11.533A68.272,68.272,0,0,1,.41,102.154c-.95-.857-.112-2.032,1.043-1.378a92.756,92.756,0,0,0,46.116,12.242,91.716,91.716,0,0,0,35.159-7.211c1.714-.728,3.168,1.135,1.473,2.384Zm4.248-4.845c-1.3-1.677-8.627-.783-11.906-.391-.988.112-1.156-.745-.26-1.378,5.831-4.1,15.409-2.925,16.509-1.547s-.3,10.974-5.757,15.559c-.838.709-1.64.335-1.268-.6C86.995,111.9,89.752,105.024,88.448,103.346Z" transform="translate(0.002 -63.781)" fill="#fff"/>
</svg>
