<svg xmlns="http://www.w3.org/2000/svg" width="60.289" height="42.209" viewBox="0 0 60.289 42.209">
  <path id="docker" d="M32.919,51.244H26.693v-5.6h6.226v5.6Zm0-19.244H26.693v5.718h6.226Zm7.366,13.639H34.059v5.6h6.226ZM25.563,38.848H19.336v5.661h6.226Zm7.357,0H26.693v5.661h6.226Zm26.073,9.419c-1.356-.914-4.484-1.243-6.886-.791a9.1,9.1,0,0,0-3.871-6L46.917,40.6l-.876,1.319c-1.733,2.619-2.2,6.933-.349,9.777A9.474,9.474,0,0,1,41.133,52.7H.187A19.775,19.775,0,0,0,4.331,67.973c3.495,4.135,8.732,6.236,15.58,6.236,14.826,0,25.8-6.829,30.934-19.235,2.016.038,6.368.009,8.6-4.258.141-.235.622-1.243.8-1.611l-1.253-.838ZM10.849,45.639H4.633v5.6h6.226v-5.6Zm7.357,0H11.98v5.6h6.226Zm7.357,0H19.336v5.6h6.226Zm-7.357-6.791H11.98v5.661h6.226Z" transform="translate(0.044 -32)" fill="#fff"/>
</svg>
