<svg xmlns="http://www.w3.org/2000/svg" width="32.019" height="46.056" viewBox="0 0 32.019 46.056">
  <path id="figma" d="M14,8.617A8.617,8.617,0,0,1,22.617,0H37.4a8.618,8.618,0,0,1,4.727,15.822A8.618,8.618,0,0,1,37.4,31.645h-.187a8.585,8.585,0,0,1-5.794-2.239v7.94a8.751,8.751,0,0,1-8.758,8.71,8.618,8.618,0,0,1-4.774-15.822,8.619,8.619,0,0,1,0-14.411A8.609,8.609,0,0,1,14,8.617Zm14.6,8.617H22.617a5.794,5.794,0,0,0-.037,11.589H28.6Zm2.823,5.794a5.794,5.794,0,0,0,5.794,5.794H37.4a5.794,5.794,0,0,0,0-11.589h-.187A5.794,5.794,0,0,0,31.421,23.028Zm-8.8,8.617H22.58a5.794,5.794,0,1,0,.083,11.588A5.928,5.928,0,0,0,28.6,37.345v-5.7Zm0-28.822a5.794,5.794,0,1,0,0,11.589H28.6V2.823Zm8.8,11.589H37.4a5.794,5.794,0,1,0,0-11.589H31.421Z" transform="translate(-14)" fill="#fff"/>
</svg>
