<svg xmlns="http://www.w3.org/2000/svg" width="41.083" height="40.057" viewBox="0 0 41.083 40.057">
  <path id="github" d="M13.741,40.254c0,.166-.191.3-.431.3-.273.025-.464-.108-.464-.3,0-.166.191-.3.431-.3C13.526,39.931,13.741,40.063,13.741,40.254Zm-2.576-.373c-.058.166.108.356.356.406a.389.389,0,0,0,.514-.166c.05-.166-.108-.356-.356-.431A.425.425,0,0,0,11.165,39.881Zm3.661-.141c-.24.058-.406.215-.381.406.025.166.24.273.489.215s.406-.215.381-.381S15.067,39.715,14.826,39.74ZM20.277,8A19.862,19.862,0,0,0,0,28.21,20.766,20.766,0,0,0,14.04,48.023c1.06.191,1.433-.464,1.433-1,0-.514-.025-3.346-.025-5.086,0,0-5.8,1.242-7.016-2.468,0,0-.944-2.41-2.3-3.032,0,0-1.9-1.3.133-1.276a4.372,4.372,0,0,1,3.2,2.137c1.814,3.2,4.854,2.278,6.038,1.731a4.6,4.6,0,0,1,1.325-2.791c-4.63-.514-9.3-1.184-9.3-9.153a6.277,6.277,0,0,1,1.955-4.879,7.826,7.826,0,0,1,.215-5.624c1.731-.538,5.715,2.236,5.715,2.236a19.568,19.568,0,0,1,10.4,0s3.984-2.783,5.715-2.236a7.822,7.822,0,0,1,.215,5.624,6.439,6.439,0,0,1,2.137,4.879c0,7.993-4.879,8.631-9.509,9.153a4.9,4.9,0,0,1,1.408,3.843c0,2.791-.025,6.245-.025,6.925,0,.538.381,1.193,1.433,1a20.575,20.575,0,0,0,13.9-19.8C41.083,16.722,31.765,8,20.277,8ZM8.051,36.568c-.108.083-.083.273.058.431.133.133.323.191.431.083.108-.083.083-.273-.058-.431C8.349,36.518,8.159,36.46,8.051,36.568ZM7.156,35.9c-.058.108.025.24.191.323a.246.246,0,0,0,.356-.058c.058-.108-.025-.24-.191-.323C7.347,35.789,7.214,35.814,7.156,35.9ZM9.84,38.846c-.133.108-.083.356.108.514.191.191.431.215.538.083.108-.108.058-.356-.108-.514C10.2,38.738,9.948,38.713,9.84,38.846ZM8.9,37.628c-.133.083-.133.3,0,.489s.356.273.464.191a.378.378,0,0,0,0-.514c-.116-.191-.331-.273-.464-.166Z" transform="translate(0 -8)" fill="#fff"/>
</svg>
