<svg xmlns="http://www.w3.org/2000/svg" width="22.122" height="22.122" viewBox="0 0 22.122 22.122">
  <path id="js" d="M0,32V54.122H22.122V32ZM12.038,49.253a2.827,2.827,0,0,1-3.106,3.136,3.229,3.229,0,0,1-3.121-1.9l1.694-1.022c.326.578.622,1.067,1.338,1.067.681,0,1.116-.267,1.116-1.309V42.157h2.079v7.1Zm4.918,3.136a3.989,3.989,0,0,1-3.787-2.123l1.694-.978a2.269,2.269,0,0,0,2.049,1.264c.859,0,1.412-.43,1.412-1.027,0-.711-.563-.963-1.516-1.383l-.518-.222c-1.5-.637-2.494-1.442-2.494-3.136a2.777,2.777,0,0,1,3.042-2.745A3.062,3.062,0,0,1,19.791,43.7l-1.62,1.037a1.414,1.414,0,0,0-1.338-.889.9.9,0,0,0-.993.889c0,.622.385.874,1.279,1.264l.518.222c1.768.755,2.76,1.531,2.76,3.269,0,1.867-1.471,2.894-3.442,2.894Z" transform="translate(0 -32)" fill="#dbd8d8"/>
</svg>
