<svg xmlns="http://www.w3.org/2000/svg" width="38.441" height="38.441" viewBox="0 0 38.441 38.441">
  <path id="js2" d="M0,32V70.441H38.441V32ZM20.92,61.981c0,3.741-2.2,5.449-5.4,5.449a5.612,5.612,0,0,1-5.423-3.3l2.943-1.776c.566,1,1.081,1.853,2.325,1.853,1.184,0,1.939-.463,1.939-2.274V49.65H20.92Zm8.546,5.449a6.933,6.933,0,0,1-6.581-3.69l2.943-1.7a3.942,3.942,0,0,0,3.561,2.2c1.493,0,2.454-.747,2.454-1.785,0-1.236-.978-1.673-2.634-2.4l-.9-.386c-2.609-1.107-4.333-2.506-4.333-5.449,0-2.711,2.068-4.771,5.286-4.771a5.32,5.32,0,0,1,5.131,2.892l-2.814,1.8a2.457,2.457,0,0,0-2.325-1.545,1.568,1.568,0,0,0-1.725,1.545c0,1.081.669,1.519,2.222,2.2l.9.386c3.072,1.313,4.8,2.66,4.8,5.68,0,3.243-2.557,5.028-5.981,5.028Z" transform="translate(0 -32)" fill="#fff"/>
</svg>
