<svg xmlns="http://www.w3.org/2000/svg" width="44.701" height="46.022" viewBox="0 0 44.701 46.022">
  <path id="laravel" d="M52.009,10.41a.514.514,0,0,0-.025-.061.766.766,0,0,0-.048-.112.538.538,0,0,0-.049-.064.843.843,0,0,0-.065-.084c-.021-.02-.047-.036-.069-.054a.8.8,0,0,0-.081-.061L43.021,4.992a.719.719,0,0,0-.719,0L33.648,9.976h0a.726.726,0,0,0-.079.062.691.691,0,0,0-.07.054.74.74,0,0,0-.065.084c-.015.022-.035.04-.049.064a.871.871,0,0,0-.047.112c-.007.021-.019.04-.025.061a.726.726,0,0,0-.025.187v9.46l-7.211,4.152V5.7a.7.7,0,0,0-.025-.188c-.005-.022-.018-.04-.025-.061a.751.751,0,0,0-.047-.111.809.809,0,0,0-.049-.065.842.842,0,0,0-.065-.084.851.851,0,0,0-.07-.054.881.881,0,0,0-.079-.061h0L17.063.095a.719.719,0,0,0-.719,0L7.69,5.076h0a.586.586,0,0,0-.079.062.7.7,0,0,0-.071.054.733.733,0,0,0-.064.084c-.016.022-.036.041-.049.065a.708.708,0,0,0-.046.111.581.581,0,0,0-.026.06A.735.735,0,0,0,7.33,5.7V35.336a.719.719,0,0,0,.36.625l17.3,9.963a.794.794,0,0,0,.12.049c.019.007.037.018.057.023a.712.712,0,0,0,.369,0c.018,0,.033-.014.049-.02a.773.773,0,0,0,.126-.052l17.308-9.963a.719.719,0,0,0,.36-.625V25.875L51.672,21.1a.719.719,0,0,0,.36-.629V10.6A.776.776,0,0,0,52.009,10.41ZM16.7,1.552h0L23.91,5.7,16.7,9.851,9.494,5.7Zm7.932,5.393v18.1l-4.182,2.408-3.028,1.744V11.1l4.182-2.408Zm0,37.1L8.772,34.919V6.948L11.8,8.69,15.981,11.1V30.441a.624.624,0,0,0,.011.081.719.719,0,0,0,.014.106h0a.532.532,0,0,0,.034.081.573.573,0,0,0,.038.09h0a.769.769,0,0,0,.054.07.685.685,0,0,0,.059.076h0c.021.02.047.034.069.052a.8.8,0,0,0,.077.059h0l8.287,4.69Zm.719-9.543-7.2-4.074,7.558-4.351,8.293-4.774,7.2,4.146-5.285,3.017Zm16.586.411L26.076,44.052v-8.3l11.75-6.705L41.94,26.7Zm0-10.708L38.911,22.47l-4.182-2.408V11.844l3.028,1.744L41.94,16Zm.719-9.463-7.209-4.15,7.209-4.149,7.207,4.148Zm.719,9.463V16l4.191-2.41L50.6,11.844v8.215h0Z" transform="translate(-7.33 0.002)" fill="#fff"/>
</svg>
