<svg xmlns="http://www.w3.org/2000/svg" width="41.042" height="49.699" viewBox="0 0 41.042 49.699">
  <path id="linux" d="M32.875,11.967c.1.049.175.165.291.165s.272-.039.281-.146c.019-.136-.184-.223-.311-.281a.642.642,0,0,0-.534-.01c-.039.019-.078.068-.058.107.029.126.223.107.33.165Zm-2.126.165c.116,0,.194-.116.291-.165s.3-.039.34-.155c.019-.039-.019-.087-.058-.107a.642.642,0,0,0-.534.01c-.126.058-.33.146-.311.281.01.1.175.146.272.136Zm21.46,27.06a4.73,4.73,0,0,1-.7-1.912,3.76,3.76,0,0,0-1.019-2.174,2.624,2.624,0,0,0-.388-.281,2.154,2.154,0,0,0-.4-.194,11.239,11.239,0,0,0-.359-7.677,25.9,25.9,0,0,0-4.513-7.221c-1.66-2.087-3.271-4.067-3.242-6.988C41.639,8.289,42.086.009,34.233,0c-9.939-.019-7.454,10.036-7.561,13.123a11.256,11.256,0,0,1-2.184,6.28,31,31,0,0,0-5.639,9.386,11.157,11.157,0,0,0-.6,5.173c-.631.563-1.106,1.427-1.611,1.961a4.168,4.168,0,0,1-1.65.806,3,3,0,0,0-1.8,1.407,2.486,2.486,0,0,0-.272,1.2,7.636,7.636,0,0,0,.116,1.145,5.026,5.026,0,0,1,.078,2.019,3.929,3.929,0,0,0-.214,3.077,2.606,2.606,0,0,0,1.951,1.194c1.679.349,3.96.262,5.756,1.213A8.132,8.132,0,0,0,26.032,49a3.518,3.518,0,0,0,2.514-1.961c1.213-.01,2.553-.524,4.688-.641,1.446-.116,3.261.514,5.348.4a3.083,3.083,0,0,0,.243.65v.01a3.892,3.892,0,0,0,3.912,2.232,7.074,7.074,0,0,0,4.688-2.708c1.32-1.592,3.494-2.252,4.94-3.125a2.347,2.347,0,0,0,1.349-1.776c.039-.8-.427-1.679-1.5-2.883ZM33.156,8.473c.951-2.155,3.319-2.116,4.271-.039a3.863,3.863,0,0,1-.417,3.921,12,12,0,0,0-1.223-.476,1.736,1.736,0,0,0,.379-.446c.466-1.145-.019-2.621-.883-2.65-.709-.049-1.349,1.048-1.145,2.232a6.914,6.914,0,0,0-1.262-.427A3.866,3.866,0,0,1,33.156,8.473Zm-3.95-1.116c.98,0,2.019,1.378,1.854,3.252a3.492,3.492,0,0,0-.99.446c.116-.864-.32-1.951-.932-1.9-.815.068-.951,2.058-.175,2.727.1.078.184-.019-.573.534C26.876,11,27.371,7.357,29.206,7.357Zm-1.32,5.892c.6-.446,1.32-.971,1.369-1.019a3.873,3.873,0,0,1,2.708-1.378,4.67,4.67,0,0,1,2.514.864,16.258,16.258,0,0,0,2.194.9c.815.34,1.33.941,1.019,1.766a3.375,3.375,0,0,1-2.2,1.757c-1.077.349-1.922,1.553-3.708,1.446a2.7,2.7,0,0,1-.932-.2c-.776-.34-1.184-1.009-1.941-1.456a2.824,2.824,0,0,1-1.427-1.485,1.045,1.045,0,0,1,.408-1.194Zm.32,32.418c-.262,3.407-4.261,3.339-7.309,1.747-2.9-1.534-6.658-.631-7.425-2.126a3.385,3.385,0,0,1,.252-2.562v-.019a5.214,5.214,0,0,0-.058-2.32,3.268,3.268,0,0,1,.087-1.941,2.221,2.221,0,0,1,1.436-1.1,4.363,4.363,0,0,0,1.9-.961c.534-.553.922-1.252,1.388-1.747a1.755,1.755,0,0,1,1.718-.67,3.394,3.394,0,0,1,2.126,1.553l1.9,3.455C25.149,40.911,28.41,43.677,28.206,45.666Zm-.136-2.514a20.834,20.834,0,0,0-1.4-1.9,1.58,1.58,0,0,0,1.621-.864,2.726,2.726,0,0,0-.718-2.417,14.267,14.267,0,0,0-3.717-3.154,5.246,5.246,0,0,1-2.388-2.9,6.572,6.572,0,0,1-.029-3.417,20.185,20.185,0,0,1,2.64-5.746c.223-.165.078.311-.844,2.019-.825,1.563-2.368,5.173-.252,8A16.762,16.762,0,0,1,24.324,26.8c1.165-2.659,3.62-7.27,3.814-10.939.107.078.446.311.6.4a11.281,11.281,0,0,1,1.223,1,3.555,3.555,0,0,0,4.115.116,10.705,10.705,0,0,1,1.543-.874,4.146,4.146,0,0,0,2.164-1.456A50.133,50.133,0,0,0,41.4,24.333a21.842,21.842,0,0,1,2.291,6.27,3.86,3.86,0,0,1,1.058.136c1.339-3.465-1.136-7.2-2.261-8.24-.456-.446-.476-.641-.252-.631a11.976,11.976,0,0,1,3.417,5.727,7.333,7.333,0,0,1,.039,3.465c1.592.66,3.484,1.737,2.98,3.378-.214-.01-.311,0-.408,0,.311-.98-.379-1.708-2.213-2.533-1.9-.835-3.494-.835-3.717,1.213a3.4,3.4,0,0,0-2.077,2.65,21.424,21.424,0,0,0-.427,3.873,15.2,15.2,0,0,1-.66,2.815c-3.116,2.223-7.445,3.193-11.094.7Zm24.983-1.116c-.087,1.631-4,1.931-6.134,4.513a6.481,6.481,0,0,1-4.232,2.475,3.175,3.175,0,0,1-3.271-1.873,5.383,5.383,0,0,1,.107-3.523,24.054,24.054,0,0,0,.961-3.941,21.843,21.843,0,0,1,.408-3.756,2.933,2.933,0,0,1,1.33-2.048c.029-.019.068-.029.1-.049.078,1.281.709,2.582,1.825,2.863,1.223.32,2.98-.728,3.727-1.582a2.747,2.747,0,0,1,2.194.5c.961.825.689,2.941,1.66,4.038C52.752,40.775,53.082,41.541,53.053,42.036Zm-24.789-27.6c.194.184.456.437.776.689a4.293,4.293,0,0,0,2.65,1.029A6.88,6.88,0,0,0,34.777,15.1a8.63,8.63,0,0,0,1.436-1.009c.379-.33.573-.611.3-.641s-.252.252-.582.5c-.427.311-.941.718-1.349.951a6.614,6.614,0,0,1-2.9.99,3.891,3.891,0,0,1-2.417-.941c-.3-.243-.553-.485-.747-.67-.146-.136-.184-.446-.417-.476-.136-.01-.175.359.165.631Z" transform="translate(-12.674 0)" fill="#fff"/>
</svg>
