<svg xmlns="http://www.w3.org/2000/svg" width="80.776" height="49.474" viewBox="0 0 80.776 49.474">
  <path id="node" d="M39.921,109.488a1.668,1.668,0,0,1-.77-.2l-2.423-1.439c-.366-.2-.189-.278-.063-.316a4.419,4.419,0,0,0,1.1-.5.217.217,0,0,1,.177.013l1.868,1.111a.241.241,0,0,0,.227,0l7.3-4.216a.239.239,0,0,0,.114-.2V95.314a.214.214,0,0,0-.114-.2l-7.3-4.2a.241.241,0,0,0-.227,0l-7.3,4.2a.227.227,0,0,0-.114.2v8.418a.235.235,0,0,0,.114.189l1.994,1.149c1.085.543,1.754-.1,1.754-.732V96.021a.213.213,0,0,1,.215-.215H37.4a.213.213,0,0,1,.215.215v8.317a2.013,2.013,0,0,1-2.158,2.272,3.128,3.128,0,0,1-1.679-.454l-1.918-1.1a1.559,1.559,0,0,1-.77-1.325V95.314a1.517,1.517,0,0,1,.77-1.325l7.3-4.216a1.566,1.566,0,0,1,1.527,0l7.3,4.216a1.559,1.559,0,0,1,.77,1.325v8.418a1.517,1.517,0,0,1-.77,1.325l-7.3,4.215a1.4,1.4,0,0,1-.757.215Zm5.894-8.3c0-1.578-1.06-1.994-3.307-2.3-2.272-.3-2.5-.454-2.5-.984,0-.442.189-1.022,1.868-1.022,1.5,0,2.057.328,2.284,1.338a.2.2,0,0,0,.2.164h.947a.209.209,0,0,0,.151-.063.2.2,0,0,0,.05-.164c-.151-1.742-1.3-2.549-3.635-2.549-2.083,0-3.319.883-3.319,2.348,0,1.6,1.237,2.032,3.231,2.234,2.385.24,2.575.581,2.575,1.048,0,.82-.656,1.161-2.2,1.161-1.931,0-2.36-.48-2.5-1.439a.208.208,0,0,0-.215-.177h-.947a.213.213,0,0,0-.215.215c0,1.224.669,2.688,3.862,2.688,2.335,0,3.66-.909,3.66-2.5Zm6.879-6.323a1.4,1.4,0,1,1-1.4-1.4A1.39,1.39,0,0,1,52.694,94.86Zm-.227,0a1.18,1.18,0,1,0-1.186,1.186A1.2,1.2,0,0,0,52.467,94.86Zm-.568.783h-.328c-.013-.076-.063-.48-.063-.492-.025-.088-.05-.139-.164-.139h-.278v.631h-.3V94.065h.543c.189,0,.555,0,.555.417a.37.37,0,0,1-.3.391c.215.013.227.151.265.353A1.759,1.759,0,0,0,51.9,95.643Zm-.353-1.111c0-.215-.151-.215-.227-.215h-.252v.442h.24A.213.213,0,0,0,51.545,94.532ZM17.329,76.547a.918.918,0,0,0-.467-.808L9.125,71.283a1,1,0,0,0-.429-.126H8.62a.889.889,0,0,0-.429.126L.467,75.739A.933.933,0,0,0,0,76.547l.013,11.99a.482.482,0,0,0,.227.4.444.444,0,0,0,.467,0L5.3,86.3a.948.948,0,0,0,.467-.808v-5.6a.933.933,0,0,1,.467-.808L8.191,77.96a.9.9,0,0,1,.467-.126.866.866,0,0,1,.467.126l1.956,1.123a.933.933,0,0,1,.467.808v5.6a.933.933,0,0,0,.467.808l4.594,2.638a.444.444,0,0,0,.467,0,.466.466,0,0,0,.227-.4l.025-11.99ZM59.635,63.458V85.722a.933.933,0,0,1-.467.808L51.432,91a.948.948,0,0,1-.934,0L42.761,86.53a.933.933,0,0,1-.467-.808V76.786a.933.933,0,0,1,.467-.808L50.5,71.511a.948.948,0,0,1,.934,0l1.931,1.111a.331.331,0,0,0,.492-.278V60.48a.464.464,0,0,1,.694-.4l4.607,2.575A.914.914,0,0,1,59.635,63.458ZM53.83,79.727a.239.239,0,0,0-.114-.2l-2.65-1.54a.267.267,0,0,0-.24,0l-2.65,1.54a.214.214,0,0,0-.114.2v3.067a.239.239,0,0,0,.114.2l2.65,1.527a.241.241,0,0,0,.227,0L53.7,83a.214.214,0,0,0,.114-.2V79.727Zm26.479-.088a.933.933,0,0,0,.467-.808V76.673a.933.933,0,0,0-.467-.808L72.623,71.4a.948.948,0,0,0-.934,0l-7.737,4.468a.933.933,0,0,0-.467.808v8.936a.918.918,0,0,0,.467.808l7.686,4.38a.924.924,0,0,0,.921,0L77.2,88.209a.463.463,0,0,0,0-.808l-7.787-4.468a.467.467,0,0,1-.24-.4v-2.8a.467.467,0,0,1,.24-.4l2.423-1.4a.445.445,0,0,1,.467,0l2.423,1.4a.5.5,0,0,1,.24.4v2.2a.474.474,0,0,0,.707.4l4.632-2.688Zm-9.756.442a.192.192,0,0,0-.088.151v1.716a.175.175,0,0,0,.088.151l1.489.858a.152.152,0,0,0,.177,0l1.489-.858a.192.192,0,0,0,.088-.151V80.232a.175.175,0,0,0-.088-.151l-1.489-.858a.152.152,0,0,0-.177,0ZM38.47,85.571V76.685a.957.957,0,0,0-.492-.808l-7.712-4.443a.947.947,0,0,0-.934,0L21.62,75.878a.941.941,0,0,0-.492.808v8.885a.973.973,0,0,0,.5.808l7.724,4.443a.917.917,0,0,0,.934,0l7.7-4.443a.938.938,0,0,0,.454-.593,1.111,1.111,0,0,0,.025-.215ZM29.092,69.807l-.1.063h.139ZM38.709,86.24l-.05-.088v.114Z" transform="translate(0 -60.015)" fill="#fff"/>
</svg>
