<svg xmlns="http://www.w3.org/2000/svg" width="79.769" height="41.954" viewBox="0 0 79.769 41.954">
  <path id="php" d="M39.885,89.794c21.363,0,37.791,9,37.791,18.883S61.235,127.56,39.885,127.56s-37.791-9-37.791-18.883,16.44-18.883,37.791-18.883m0-2.094C17.861,87.7,0,97.085,0,108.677s17.861,20.977,39.885,20.977,39.885-9.385,39.885-20.977S61.908,87.7,39.885,87.7ZM27.2,106.994c-.985,5.048-4.462,4.524-8.737,4.524l1.708-8.8c4.736,0,7.952-.511,7.03,4.275ZM12.14,120.43h4.574l1.084-5.584c5.123,0,8.3.374,11.242-2.381,3.253-2.991,4.1-8.313,1.782-10.981-1.209-1.4-3.153-2.081-5.8-2.081H16.216ZM35.285,93.807h4.549L38.75,99.391c3.926,0,7.566-.287,9.323,1.334,1.845,1.7.96,3.864-1.035,14.1H42.427c1.919-9.9,2.281-10.719,1.583-11.467-.673-.723-2.206-.573-5.908-.573l-2.343,12.04H31.21l4.076-21.014Zm27.658,13.187c-1,5.123-4.574,4.524-8.737,4.524l1.708-8.8C60.675,102.719,63.865,102.208,62.943,106.994ZM47.887,120.43h4.587l1.084-5.584c5.384,0,8.363.312,11.242-2.381,3.253-2.991,4.1-8.313,1.782-10.981-1.209-1.4-3.153-2.081-5.8-2.081H51.975Z" transform="translate(0 -87.7)" fill="#fff"/>
</svg>
