<svg xmlns="http://www.w3.org/2000/svg" width="53.758" height="47.041" viewBox="0 0 53.758 47.041">
  <path id="react" d="M43.909,47.257q-.85-.283-1.7-.535c.094-.388.178-.777.262-1.165,1.291-6.258.441-11.287-2.425-12.946-2.761-1.585-7.266.063-11.823,4.032-.451.388-.892.8-1.312,1.207-.283-.273-.577-.546-.871-.808-4.777-4.242-9.565-6.027-12.431-4.357-2.751,1.6-3.57,6.331-2.415,12.253.115.588.241,1.165.388,1.753-.672.189-1.333.4-1.953.619C4.021,49.251,0,52.317,0,55.488c0,3.276,4.284,6.562,10.111,8.557.472.157.945.315,1.428.451-.157.63-.294,1.249-.42,1.89-1.1,5.827-.241,10.447,2.509,12.033,2.835,1.638,7.6-.042,12.242-4.105.367-.325.735-.661,1.1-1.018.462.451.945.882,1.428,1.3,4.494,3.864,8.935,5.428,11.676,3.843,2.835-1.638,3.759-6.6,2.562-12.652q-.142-.693-.315-1.417c.336-.094.661-.2.987-.3,6.058-2.005,10.447-5.25,10.447-8.578C53.758,52.307,49.621,49.22,43.909,47.257ZM29.7,38.342c3.906-3.4,7.549-4.735,9.208-3.78,1.774,1.018,2.457,5.134,1.344,10.542-.073.357-.147.7-.241,1.05a53.75,53.75,0,0,0-7.066-1.113,53.05,53.05,0,0,0-4.473-5.575c.409-.388.808-.756,1.228-1.123Zm-12.148,22.6c.535.913,1.081,1.827,1.659,2.719a47.546,47.546,0,0,1-4.872-.787A49.047,49.047,0,0,1,16.054,58.2c.483.924.976,1.837,1.5,2.74ZM14.374,48.307c1.512-.336,3.118-.609,4.788-.819-.556.871-1.1,1.764-1.617,2.667s-1.018,1.806-1.491,2.73c-.661-1.564-1.218-3.1-1.68-4.578Zm2.877,7.234c.693-1.449,1.449-2.866,2.247-4.263s1.659-2.751,2.562-4.084c1.575-.115,3.181-.178,4.819-.178s3.255.063,4.819.178q1.339,1.984,2.551,4.063T36.528,55.5q-1.055,2.173-2.268,4.284c-.8,1.4-1.648,2.751-2.541,4.095-1.564.115-3.192.168-4.84.168s-3.244-.052-4.788-.147q-1.37-2-2.583-4.095c-.808-1.4-1.554-2.814-2.257-4.263Zm18.962,5.376c.535-.924,1.039-1.858,1.533-2.8a48.739,48.739,0,0,1,1.774,4.651,46.119,46.119,0,0,1-4.935.84C35.153,62.722,35.688,61.819,36.213,60.917Zm1.512-8.032c-.493-.924-1-1.848-1.522-2.751s-1.05-1.774-1.606-2.646a48.316,48.316,0,0,1,4.819.84A46.468,46.468,0,0,1,37.725,52.884ZM26.9,41.072a46.106,46.106,0,0,1,3.108,3.759c-2.079-.094-4.168-.094-6.247,0C24.789,43.477,25.85,42.217,26.9,41.072ZM14.72,34.636c1.764-1.029,5.68.441,9.807,4.095.262.231.525.483.8.735a53.343,53.343,0,0,0-4.5,5.575,55.346,55.346,0,0,0-7.056,1.092c-.136-.535-.252-1.081-.367-1.627-.987-5.082-.336-8.914,1.323-9.87ZM12.148,62.313c-.441-.126-.871-.262-1.3-.409a21.414,21.414,0,0,1-6.615-3.276,4.711,4.711,0,0,1-1.974-3.139c0-1.921,3.318-4.378,8.106-6.048.6-.21,1.207-.4,1.816-.577a55.831,55.831,0,0,0,2.572,6.678A57.393,57.393,0,0,0,12.148,62.313ZM24.391,72.6a19.217,19.217,0,0,1-5.922,3.706,4.647,4.647,0,0,1-3.706.136c-1.669-.966-2.362-4.672-1.417-9.66.115-.588.241-1.176.388-1.753a52.525,52.525,0,0,0,7.129,1.029A55.407,55.407,0,0,0,25.4,71.668c-.336.325-.672.64-1.008.934Zm2.572-2.551c-1.071-1.155-2.142-2.436-3.181-3.811,1.008.042,2.047.063,3.1.063,1.081,0,2.142-.021,3.192-.074A45.279,45.279,0,0,1,26.963,70.051ZM40.686,73.2a4.666,4.666,0,0,1-1.732,3.286c-1.669.966-5.229-.294-9.072-3.591-.441-.378-.882-.787-1.333-1.207a51.941,51.941,0,0,0,4.431-5.628,51.76,51.76,0,0,0,7.161-1.1c.1.43.2.861.283,1.281A19.14,19.14,0,0,1,40.686,73.2ZM42.6,61.914c-.294.094-.588.189-.892.273a53.338,53.338,0,0,0-2.677-6.7,53.071,53.071,0,0,0,2.572-6.6c.546.157,1.071.325,1.575.493,4.893,1.68,8.326,4.179,8.326,6.09C51.5,57.525,47.836,60.182,42.6,61.914ZM26.879,60.339A4.809,4.809,0,1,0,22.07,55.53a4.808,4.808,0,0,0,4.809,4.809Z" transform="translate(0 -32.012)" fill="#fff"/>
</svg>
